<svg xmlns="http://www.w3.org/2000/svg" version="1.1" width="200px" height="200px" style="shape-rendering:geometricPrecision; text-rendering:geometricPrecision; image-rendering:optimizeQuality; fill-rule:evenodd; clip-rule:evenodd" xmlns:xlink="http://www.w3.org/1999/xlink">
<g><path style="opacity:0.999" fill="#ca6598" d="M 84.5,-0.5 C 94.5,-0.5 104.5,-0.5 114.5,-0.5C 161.167,9.5 189.5,37.8333 199.5,84.5C 199.5,94.5 199.5,104.5 199.5,114.5C 189.5,161.167 161.167,189.5 114.5,199.5C 104.5,199.5 94.5,199.5 84.5,199.5C 37.8333,189.5 9.5,161.167 -0.5,114.5C -0.5,104.5 -0.5,94.5 -0.5,84.5C 9.5,37.8333 37.8333,9.5 84.5,-0.5 Z"/></g>
<g><path style="opacity:1" fill="#fdfafc" d="M 118.5,23.5 C 131.299,22.429 143.299,24.929 154.5,31C 160.367,35.1896 163.034,40.8562 162.5,48C 160.537,67.2212 150.537,80.5545 132.5,88C 121.243,92.6438 109.577,94.3105 97.5,93C 90.3907,91.55 85.3907,87.55 82.5,81C 82.8333,80.5 83.1667,80 83.5,79.5C 89.9409,85.8114 97.6076,87.9781 106.5,86C 125.728,84.0698 140.228,74.9032 150,58.5C 154.931,47.1953 151.431,40.0287 139.5,37C 124.89,34.9082 110.89,36.9082 97.5,43C 83.2075,49.3894 70.3742,57.8894 59,68.5C 49.871,79.0367 49.2044,90.0367 57,101.5C 66,109.167 75,116.833 84,124.5C 95.5255,119.976 106.692,120.81 117.5,127C 125.214,132.257 128.047,139.424 126,148.5C 123.779,153.293 120.279,155.627 115.5,155.5C 124.809,148.088 124.809,140.588 115.5,133C 106.285,128.334 96.9513,127.501 87.5,130.5C 92.0259,149.948 85.3592,164.114 67.5,173C 46.513,178.68 39.013,171.18 45,150.5C 47.4626,147.035 50.2959,143.869 53.5,141C 60.1603,136.001 67.1603,131.501 74.5,127.5C 73.6872,126.186 72.6872,125.019 71.5,124C 59.4857,116.987 48.9857,108.154 40,97.5C 35.7906,89.6566 35.4573,81.6566 39,73.5C 46.5,60.6667 56.6667,50.5 69.5,43C 84.829,33.6578 101.162,27.1578 118.5,23.5 Z"/></g>
<g><path style="opacity:1" fill="#cd699b" d="M 77.5,133.5 C 78.4959,133.414 79.3292,133.748 80,134.5C 81.6716,148.464 76.1716,158.297 63.5,164C 60.7728,164.818 58.1062,164.652 55.5,163.5C 53.945,158.939 54.445,154.606 57,150.5C 62.8101,143.524 69.6434,137.857 77.5,133.5 Z"/></g>
</svg>
