<svg xmlns="http://www.w3.org/2000/svg" version="1.1" width="1000px" height="1000px" style="shape-rendering:geometricPrecision; text-rendering:geometricPrecision; image-rendering:optimizeQuality; fill-rule:evenodd; clip-rule:evenodd" xmlns:xlink="http://www.w3.org/1999/xlink">
<g><path style="opacity:0.998" fill="#1bbc9b" d="M 497.5,-0.5 C 498.167,-0.5 498.833,-0.5 499.5,-0.5C 499.5,95.5 499.5,191.5 499.5,287.5C 438.167,322.833 376.833,358.167 315.5,393.5C 237.39,346.941 159.39,300.108 81.5,253C 79.9371,252.241 78.9371,251.074 78.5,249.5C 218.368,166.404 358.034,83.0704 497.5,-0.5 Z"/></g>
<g><path style="opacity:1" fill="#19b5fd" d="M 921.5,749.5 C 842.412,701.076 763.079,653.076 683.5,605.5C 683.667,535.833 683.5,466.166 683,396.5C 622.915,361.207 562.749,326.041 502.5,291C 500.937,290.241 499.937,289.074 499.5,287.5C 582.348,240.576 665.348,193.909 748.5,147.5C 807.373,182.869 865.873,218.869 924,255.5C 924.113,420.179 923.28,584.846 921.5,749.5 Z"/></g>
<g><path style="opacity:0.996" fill="#36d7b7" d="M 78.5,249.5 C 78.9371,251.074 79.9371,252.241 81.5,253C 159.39,300.108 237.39,346.941 315.5,393.5C 315.333,463.834 315.5,534.167 316,604.5C 377.071,640.421 438.238,676.088 499.5,711.5C 499.5,712.167 499.5,712.833 499.5,713.5C 416.652,760.424 333.652,807.091 250.5,853.5C 191.627,818.131 133.127,782.131 75,745.5C 75,581.499 75.6667,417.499 77,253.5C 77.21,251.942 77.71,250.609 78.5,249.5 Z"/></g>
<g><path style="opacity:0.997" fill="#3498db" d="M 683.5,605.5 C 763.079,653.076 842.412,701.076 921.5,749.5C 917.072,752.891 912.406,756.058 907.5,759C 771.938,838.941 636.605,919.108 501.5,999.5C 500.833,999.5 500.167,999.5 499.5,999.5C 499.5,904.167 499.5,808.833 499.5,713.5C 499.5,712.833 499.5,712.167 499.5,711.5C 560.833,676.167 622.167,640.833 683.5,605.5 Z"/></g>
</svg>
